<?xml version="1.0" standalone="no"?><!DOCTYPE svg PUBLIC "-//W3C//DTD SVG 1.1//EN" "http://www.w3.org/Graphics/SVG/1.1/DTD/svg11.dtd"><svg t="1780554841014" class="icon" viewBox="0 0 1024 1024" version="1.1" xmlns="http://www.w3.org/2000/svg" p-id="21128" width="24" height="24" xmlns:xlink="http://www.w3.org/1999/xlink"><path d="M823.168 268.501333l-213.333333 213.333334a42.666667 42.666667 0 0 0 0 60.330666l213.333333 213.333334a42.666667 42.666667 0 0 0 60.330667 0 42.666667 42.666667 0 0 0 0-60.330667L700.330667 512l183.168-183.168a42.666667 42.666667 0 0 0 0-60.330667 42.666667 42.666667 0 0 0-60.330667 0zM170.666667 256a42.666667 42.666667 0 0 0-30.165334 12.501333 42.666667 42.666667 0 0 0 0 60.330667L323.669333 512l-183.168 183.168a42.666667 42.666667 0 0 0 0 60.330667 42.666667 42.666667 0 0 0 60.330667 0l213.333333-213.333334a42.666667 42.666667 0 0 0 0-60.330666l-213.333333-213.333334A42.666667 42.666667 0 0 0 170.666667 256z" p-id="21129"></path></svg>