<?xml version="1.0" standalone="no"?><!DOCTYPE svg PUBLIC "-//W3C//DTD SVG 1.1//EN" "http://www.w3.org/Graphics/SVG/1.1/DTD/svg11.dtd"><svg t="1780587413712" class="icon" viewBox="0 0 1024 1024" version="1.1" xmlns="http://www.w3.org/2000/svg" p-id="30655" width="24" height="24" xmlns:xlink="http://www.w3.org/1999/xlink"><path d="M512 42.666667C253.312 42.666667 42.666667 253.312 42.666667 512s210.645333 469.333333 469.333333 469.333333 469.333333-210.645333 469.333333-469.333333S770.688 42.666667 512 42.666667z m0 85.333333c212.565333 0 384 171.434667 384 384s-171.434667 384-384 384-384-171.434667-384-384 171.434667-384 384-384z" p-id="30656"></path><path d="M426.666667 298.666667a42.666667 42.666667 0 0 0-30.165334 12.501333 42.666667 42.666667 0 0 0 0 60.330667L537.002667 512l-140.501334 140.501333a42.666667 42.666667 0 0 0 0 60.330667 42.666667 42.666667 0 0 0 60.330667 0l170.666667-170.666667a42.666667 42.666667 0 0 0 0-60.330666l-170.666667-170.666667A42.666667 42.666667 0 0 0 426.666667 298.666667z" p-id="30657"></path></svg>