<?xml version="1.0" standalone="no"?><!DOCTYPE svg PUBLIC "-//W3C//DTD SVG 1.1//EN" "http://www.w3.org/Graphics/SVG/1.1/DTD/svg11.dtd"><svg t="1780552586517" class="icon" viewBox="0 0 1024 1024" version="1.1" xmlns="http://www.w3.org/2000/svg" p-id="21716" width="24" height="24" xmlns:xlink="http://www.w3.org/1999/xlink"><path d="M512 85.333333a42.666667 42.666667 0 0 0-42.666667 42.666667v512a42.666667 42.666667 0 0 0 42.666667 42.666667 42.666667 42.666667 0 0 0 42.666667-42.666667V128a42.666667 42.666667 0 0 0-42.666667-42.666667z" p-id="21717"></path><path d="M481.834667 97.834667l-213.333334 213.333333a42.666667 42.666667 0 0 0 0 60.330667 42.666667 42.666667 0 0 0 60.330667 0L512 188.330667l183.168 183.168a42.666667 42.666667 0 0 0 60.330667 0 42.666667 42.666667 0 0 0 0-60.330667l-213.333334-213.333333a42.666667 42.666667 0 0 0-60.330666 0zM128 597.333333a42.666667 42.666667 0 0 0-42.666667 42.666667v170.666667c0 70.186667 57.813333 128 128 128h597.333334c70.186667 0 128-57.813333 128-128v-170.666667a42.666667 42.666667 0 0 0-42.666667-42.666667 42.666667 42.666667 0 0 0-42.666667 42.666667v170.666667c0 24.064-18.602667 42.666667-42.666666 42.666666H213.333333c-24.064 0-42.666667-18.602667-42.666666-42.666666v-170.666667a42.666667 42.666667 0 0 0-42.666667-42.666667z" p-id="21718"></path></svg>